<svg width="36" height="36" viewBox="0 0 36 36" fill="none" xmlns="http://www.w3.org/2000/svg">
<path d="M16.6154 3.1293C13.7227 1.08061 10.3583 -0.005604 6.92308 2.17423e-05C4.87937 -0.00228808 2.85027 0.380842 0.923077 1.13293C0.653153 1.23845 0.419449 1.43389 0.254139 1.69234C0.0888281 1.9508 4.07626e-05 2.25956 0 2.57611V31.6643C3.15345e-05 31.9092 0.0532004 32.1506 0.155043 32.368C0.256885 32.5855 0.404429 32.7728 0.585288 32.9142C0.766147 33.0556 0.975042 33.1469 1.19444 33.1806C1.41383 33.2142 1.63733 33.1891 1.84615 33.1075C3.47692 32.4715 5.19385 32.1478 6.92308 32.1501C10.6062 32.1501 13.9809 33.5933 16.6154 36V3.1293ZM19.3846 36C22.1103 33.5058 25.5389 32.144 29.0769 32.1501C30.8603 32.1501 32.5662 32.489 34.1538 33.1095C34.3628 33.1912 34.5865 33.2163 34.806 33.1825C35.0256 33.1488 35.2346 33.0573 35.4155 32.9156C35.5964 32.774 35.7439 32.5865 35.8456 32.3687C35.9473 32.151 36.0003 31.9094 36 31.6643V2.57611C36 2.25956 35.9112 1.9508 35.7459 1.69234C35.5805 1.43389 35.3468 1.23845 35.0769 1.13293C33.1497 0.380842 31.1206 -0.00228808 29.0769 2.17423e-05C25.6417 -0.005604 22.2773 1.08061 19.3846 3.1293V36Z" fill="#A146E7"/>
</svg>
