<svg width="34" height="39" viewBox="0 0 34 39" fill="none" xmlns="http://www.w3.org/2000/svg">
<path d="M34 27.4219V1.82812C34 0.815039 33.1879 0 32.1786 0H7.28571C3.26339 0 0 3.27539 0 7.3125V31.6875C0 35.7246 3.26339 39 7.28571 39H32.1786C33.1879 39 34 38.185 34 37.1719V35.9531C34 35.3818 33.7344 34.8639 33.3246 34.5287C33.0058 33.3557 33.0058 30.0117 33.3246 28.8387C33.7344 28.5111 34 27.9932 34 27.4219ZM9.71429 10.207C9.71429 9.95566 9.9192 9.75 10.1696 9.75H26.2589C26.5094 9.75 26.7143 9.95566 26.7143 10.207V11.7305C26.7143 11.9818 26.5094 12.1875 26.2589 12.1875H10.1696C9.9192 12.1875 9.71429 11.9818 9.71429 11.7305V10.207ZM9.71429 15.082C9.71429 14.8307 9.9192 14.625 10.1696 14.625H26.2589C26.5094 14.625 26.7143 14.8307 26.7143 15.082V16.6055C26.7143 16.8568 26.5094 17.0625 26.2589 17.0625H10.1696C9.9192 17.0625 9.71429 16.8568 9.71429 16.6055V15.082ZM28.9455 34.125H7.28571C5.94241 34.125 4.85714 33.0357 4.85714 31.6875C4.85714 30.3469 5.95 29.25 7.28571 29.25H28.9455C28.8013 30.5525 28.8013 32.8225 28.9455 34.125Z" fill="#979797"/>
</svg>
